<svg width="45" height="82" viewBox="0 0 45 82" fill="none" xmlns="http://www.w3.org/2000/svg">
<path d="M7.71428 80.6822H2.10389V80.0051H7.1116V77.4067H7.71428V80.6822ZM7.71428 68.1651V68.8749L2.10389 66.8223V66.1234L7.71428 64.0702V64.78L2.99147 66.4508V66.4943L7.71428 68.1651ZM5.52272 67.9031V65.042H6.1254V67.9031H5.52272ZM7.71428 55.0089L2.10389 56.5376V55.8497L6.6733 54.6813V54.6267L2.10389 53.4364V52.6721L6.6733 51.4818V51.4272L2.10388 50.2588V49.5708L7.71428 51.0996V51.7984L3.24349 53.0324V53.076L7.71428 54.31V55.0089ZM7.71428 41.1167H2.10388V37.7643H2.70656V40.4397H4.60226V38.0155H5.20494V40.4397H7.71428V41.1167ZM2.10388 28.3171H7.71428V28.9941H2.10388V28.3171ZM7.71428 19.349H2.10388V17.4599C2.10388 17.0231 2.17876 16.6646 2.32852 16.3843C2.47645 16.104 2.68008 15.8965 2.93942 15.7619C3.19875 15.6272 3.49369 15.5599 3.82426 15.5599C4.15481 15.5599 4.44794 15.6272 4.70362 15.7619C4.9593 15.8965 5.16019 16.1031 5.3063 16.3816C5.45058 16.66 5.52271 17.0158 5.52271 17.449V18.9778H4.90908V17.4708C4.90908 17.1723 4.86525 16.9321 4.77758 16.7501C4.68992 16.5663 4.56574 16.4334 4.40502 16.3516C4.24248 16.2678 4.04889 16.2259 3.82426 16.2259C3.59962 16.2259 3.4033 16.2678 3.23528 16.3516C3.06725 16.4352 2.93759 16.569 2.84627 16.7529C2.75314 16.9367 2.70656 17.1796 2.70656 17.4818V18.672H7.71428V19.349ZM5.19398 16.7174L7.71428 15.3415V16.1277L5.19398 17.4818V16.7174ZM2.10388 6.82112V6.01303L6.76092 4.113V4.04748L2.10388 2.14744V1.33939H7.71428V1.97273H3.45169V2.02733L7.71428 3.77449V4.38599L3.45169 6.13315V6.18775H7.71428V6.82112H2.10388Z" fill="#FFC107"/>
<path fill-rule="evenodd" clip-rule="evenodd" d="M45 0H8.35712V82H20.9807C20.108 81.7899 19.2843 81.5227 18.5095 81.1979C16.3256 80.2774 14.6158 78.9346 13.3803 77.1684C12.1574 75.4022 11.4959 73.251 11.3961 70.7141H18.2287C18.3285 72.0447 18.7404 73.1517 19.4642 74.0345C20.188 74.9173 21.1302 75.5765 22.2909 76.0121C23.4639 76.4471 24.7743 76.6649 26.222 76.6649C27.732 76.6649 29.0549 76.4407 30.1905 75.9935C31.3387 75.5329 32.2372 74.8987 32.8861 74.0902C33.5351 73.2696 33.8658 72.3118 33.8783 71.2176C33.8658 70.2227 33.5725 69.4021 32.9985 68.7551C32.4244 68.0959 31.6194 67.5488 30.5836 67.1138C29.5603 66.666 28.3623 66.2682 26.9895 65.9197L22.6278 64.8005C19.4704 63.9922 16.9745 62.7672 15.14 61.1256C13.318 59.4715 12.4069 57.2765 12.4069 54.5405C12.4069 52.2895 13.0184 50.3183 14.2414 48.627C15.477 46.9356 17.1555 45.6236 19.277 44.6909C21.3986 43.7457 23.8009 43.2731 26.484 43.2731C29.2047 43.2731 31.5882 43.7457 33.6349 44.6909C35.6941 45.6236 37.3102 46.9232 38.4833 48.5897C39.6564 50.2437 40.2617 52.1465 40.2991 54.298H33.6162C33.4415 52.6688 32.7052 51.4003 31.4073 50.4925C30.1219 49.5846 28.4496 49.1307 26.3904 49.1307C24.9428 49.1307 23.7011 49.3483 22.6653 49.7835C21.6294 50.2188 20.837 50.8096 20.2879 51.5558C19.7388 52.3019 19.458 53.1538 19.4455 54.1114C19.4455 54.9073 19.6265 55.5976 19.9883 56.1821C20.3627 56.7666 20.8681 57.2641 21.5046 57.6744C22.1411 58.0724 22.8462 58.4082 23.62 58.6818C24.3937 58.9554 25.1737 59.1855 25.9599 59.372L29.554 60.2674C31.0017 60.6032 32.3932 61.0571 33.7285 61.6292C35.0763 62.2013 36.2806 62.9226 37.3414 63.7931C38.4147 64.6634 39.2632 65.7147 39.8873 66.946C40.5112 68.1772 40.8232 69.6193 40.8232 71.2734C40.8232 73.5124 40.2491 75.4836 39.1011 77.187C37.9529 78.8782 36.2931 80.203 34.1216 81.1608C33.3415 81.5022 32.5019 81.7822 31.6028 82H45V0Z" fill="#FFC107"/>
</svg>
